<svg width="14" height="15" viewBox="0 0 14 15" fill="none" xmlns="http://www.w3.org/2000/svg">
<path d="M7 14.3049C10.6011 14.3049 13.5 11.3178 13.5 7.65852C13.5 3.99928 10.6011 1.01218 7 1.01218C3.39886 1.01218 0.5 3.99928 0.5 7.65852C0.5 11.3178 3.39886 14.3049 7 14.3049Z" fill="#F5F5F5" stroke="#F5F5F5"/>
<path fill-rule="evenodd" clip-rule="evenodd" d="M7.99995 13.7965C7.72382 13.8221 7.47983 13.6118 7.45498 13.3268C7.43013 13.0417 7.63383 12.7899 7.90995 12.7642C10.451 12.2787 12.215 9.87399 11.9788 7.21734C11.7427 4.5607 9.58426 2.5276 7 2.5276C4.41574 2.5276 2.25733 4.5607 2.02117 7.21734C1.78502 9.87399 3.54895 12.2787 6.09005 12.7642C6.36617 12.8155 6.54973 13.0882 6.50002 13.3732C6.45032 13.6583 6.18618 13.8478 5.91005 13.7965C2.86017 13.2148 0.742413 10.3293 1.02531 7.14091C1.30821 3.95249 3.8985 1.51218 7 1.51218C10.1015 1.51218 12.6918 3.95249 12.9747 7.14091C13.2576 10.3293 11.1398 13.2148 8.08995 13.7965H7.99995Z" fill="#F51E38"/>
<path fill-rule="evenodd" clip-rule="evenodd" d="M7.00125 9.7072C6.93927 9.70708 6.87955 9.68984 6.83368 9.65884L4.12255 7.82659C4.04443 7.77367 3.99993 7.69871 4 7.62012V7.07509C4.00003 6.97618 4.07047 6.88468 4.18513 6.83458C4.2998 6.78448 4.44156 6.78328 4.55773 6.83141L6.62359 7.68522C6.74446 7.73659 6.78645 7.8511 6.71738 7.94099C6.64832 8.03088 6.49435 8.06211 6.37349 8.01075L4.50021 7.23321V7.57919L7.00125 9.27006L9.50229 7.57919V7.07881L7.63902 8.00889C7.56496 8.05031 7.46617 8.05789 7.38231 8.02858C7.29844 7.99927 7.24324 7.93787 7.23886 7.86902C7.23447 7.80018 7.28163 7.73518 7.3614 7.7001L9.41726 6.68074C9.53243 6.62384 9.68035 6.61867 9.8022 6.66728C9.92404 6.7159 10.0001 6.81042 10 6.91326V7.62756C10.0001 7.70615 9.95557 7.78112 9.87745 7.83403L7.16632 9.66628C7.11966 9.69417 7.06109 9.70869 7.00125 9.7072Z" fill="#F51E38"/>
</svg>
